<svg xmlns="http://www.w3.org/2000/svg" viewBox="0 0 29.19 26.27"><defs><style>.cls-1{fill:#f15a29;}</style></defs><title>cart</title><g id="Слой_2" data-name="Слой 2"><g id="Layer_1" data-name="Layer 1"><path class="cls-1" d="M24.54,18H10.22L5,.88A1.24,1.24,0,0,0,3.82,0H1.24A1.24,1.24,0,0,0,0,1.24,1.2,1.2,0,0,0,1.24,2.43H2.9l5.2,17.12a1.24,1.24,0,0,0,1.19.88H24.54a1.2,1.2,0,0,0,1.24-1.19A1.24,1.24,0,0,0,24.54,18Z"/><circle class="cls-1" cx="10.7" cy="23.84" r="2.43"/><circle class="cls-1" cx="22.86" cy="23.84" r="2.43"/><path class="cls-1" d="M7.08,3.41l2.69,8.76h0c.1.31.45,1.46,2.39,1.46H23.35c2.41,0,2.75-1,3.07-1.92l2.76-8.29Z"/></g></g></svg>