<svg xmlns="http://www.w3.org/2000/svg" viewBox="0 0 19 12.67"><defs><style>.cls-1{fill:#fff;}</style></defs><title>email</title><g id="Слой_2" data-name="Слой 2"><g id="Layer_1" data-name="Layer 1"><path class="cls-1" d="M17.41,0H1.59A1.59,1.59,0,0,0,0,1.59v9.5a1.59,1.59,0,0,0,1.59,1.59H17.41A1.59,1.59,0,0,0,19,11.08V1.59A1.59,1.59,0,0,0,17.41,0Zm.75,12.16a.16.16,0,0,1-.22,0L12.2,6.83,9.92,9A.59.59,0,0,1,9.1,9L6.82,6.81,1.06,12.15a.16.16,0,0,1-.22-.22L6.16,6.18.84,1.07A.16.16,0,0,1,1.06.83L9.51,7.75,18,.84a.16.16,0,0,1,.21.24L12.8,6.24l.05,0,5.31,5.74A.16.16,0,0,1,18.16,12.16Z"/></g></g></svg>