<svg xmlns="http://www.w3.org/2000/svg" viewBox="0 0 18.46 16"><defs><style>.cls-1{fill:#fff;}</style></defs><title>face</title><g id="Слой_2" data-name="Слой 2"><g id="Layer_1" data-name="Layer 1"><path class="cls-1" d="M18.46,14.46a1.54,1.54,0,0,0-.93-1.52h0L12,10.46h0a.92.92,0,0,0-.9-.92V9.23A5.18,5.18,0,0,0,12.4,6.77a1.41,1.41,0,0,0,.52-1.14,1.59,1.59,0,0,0-.18-.74,3.78,3.78,0,0,0,.18-1.14,3.69,3.69,0,1,0-7.38,0,3.78,3.78,0,0,0,.18,1.14,1.6,1.6,0,0,0-.18.74,1.41,1.41,0,0,0,.52,1.14A5.17,5.17,0,0,0,7.38,9.24v.3a.92.92,0,0,0-.92.92L.94,12.94A1.54,1.54,0,0,0,0,14.46v.62A.92.92,0,0,0,.92,16H17.54a.92.92,0,0,0,.92-.92v-.62Z"/></g></g></svg>