<svg xmlns="http://www.w3.org/2000/svg" viewBox="0 0 25.25 23.15"><defs><style>.cls-1{fill:#f15a29;}</style></defs><title>heard</title><g id="Слой_2" data-name="Слой 2"><g id="Layer_1" data-name="Layer 1"><path class="cls-1" d="M25.25,7.64A7.51,7.51,0,0,0,17.89,0a7.21,7.21,0,0,0-5.27,2.34A7.21,7.21,0,0,0,7.36,0,7.51,7.51,0,0,0,0,7.64,3.13,3.13,0,0,0,0,8s0,.07,0,.1a6.52,6.52,0,0,0,.54,2.44l0,.09C2.83,16,11.47,22.6,11.83,22.89a1.26,1.26,0,0,0,1.55,0c.31-.25,7.67-5.95,10.6-11a5.05,5.05,0,0,0,.27-.48l.07-.13v0l0-.05a7.46,7.46,0,0,0,.43-1,6,6,0,0,0,.45-2.16c0-.05,0-.1,0-.13A2.5,2.5,0,0,0,25.25,7.64Z"/></g></g></svg>