<svg xmlns="http://www.w3.org/2000/svg" viewBox="0 0 21.58 10.62"><defs><style>.cls-1{fill:#fff;}</style></defs><title>key</title><g id="Слой_2" data-name="Слой 2"><g id="Layer_1" data-name="Layer 1"><path class="cls-1" d="M21.4,3.81l-1.6-1.39a.53.53,0,0,0-.35-.13l-9.75,0a7.8,7.8,0,0,0-.89-1A5.31,5.31,0,1,0,9.32,8.8a5,5,0,0,0,1-1.69l1.77.72a.53.53,0,0,0,.61-.15L14,6.12l1.62,1.23a.53.53,0,0,0,.71-.06L18,5.51l1.43.78a.53.53,0,0,0,.65-.12l1.39-1.6A.53.53,0,0,0,21.4,3.81ZM4.61,6.32a1.06,1.06,0,1,1,1.5-.1A1.06,1.06,0,0,1,4.61,6.32Z"/></g></g></svg>