<svg xmlns="http://www.w3.org/2000/svg" viewBox="0 0 20.33 29.06"><defs><style>.cls-1{fill:#f15a29;}</style></defs><title>lock</title><g id="Слой_2" data-name="Слой 2"><g id="Layer_1" data-name="Layer 1"><path class="cls-1" d="M17.91,12.6H16V5.81a5.81,5.81,0,1,0-11.62,0V12.6H2.42A2.42,2.42,0,0,0,0,15V26.64a2.42,2.42,0,0,0,2.42,2.42H17.91a2.42,2.42,0,0,0,2.42-2.42V15A2.42,2.42,0,0,0,17.91,12.6ZM7.27,5.81a2.9,2.9,0,1,1,5.81,0V12.6H7.27ZM11.14,23v2.69a.48.48,0,0,1-.48.48h-1a.48.48,0,0,1-.48-.48V23a1.94,1.94,0,1,1,1.94,0Z"/></g></g></svg>