<svg xmlns="http://www.w3.org/2000/svg" viewBox="0 0 16.75 16.74"><defs><style>.cls-1{fill:#fff;}</style></defs><title>phone-1</title><g id="Слой_2" data-name="Слой 2"><g id="Layer_1" data-name="Layer 1"><path class="cls-1" d="M16.75,13.09a4.63,4.63,0,0,1-2.29,3.61.56.56,0,0,1-.24.05.55.55,0,0,1-.18,0l-.46-.13C11.12,15.9,3.63,13.83,0,2.65a.57.57,0,0,1,0-.31C0,2.27.49.51,3.51,0a.56.56,0,0,1,.33,0C4,.1,6.57,1.33,6.79,3.84a.57.57,0,0,1-.15.44,6.12,6.12,0,0,0-1.56,2.4,10.76,10.76,0,0,0,5.14,5.22,7.63,7.63,0,0,0,2.42-1.51.56.56,0,0,1,.5-.12,5.42,5.42,0,0,1,3.55,2.47A.57.57,0,0,1,16.75,13.09Z"/></g></g></svg>