<svg xmlns="http://www.w3.org/2000/svg" viewBox="0 0 29 29"><defs><style>.cls-1{fill:#f15a29;}</style></defs><title>phone-2_1</title><g id="Слой_2" data-name="Слой 2"><g id="Layer_1" data-name="Layer 1"><path class="cls-1" d="M14.5,0A14.5,14.5,0,1,0,29,14.5,14.5,14.5,0,0,0,14.5,0Zm7.25,18.58a4,4,0,0,1-2,3.12.49.49,0,0,1-.2,0l-.15,0-.4-.12C16.87,21,10.39,19.23,7.27,9.54a.49.49,0,0,1,0-.27c0-.06.41-1.59,3-2a.48.48,0,0,1,.29,0c.1,0,2.36,1.11,2.55,3.28A.49.49,0,0,1,13,11,5.3,5.3,0,0,0,11.64,13a9.32,9.32,0,0,0,4.45,4.52,6.61,6.61,0,0,0,2.1-1.31.48.48,0,0,1,.44-.1,4.69,4.69,0,0,1,3.07,2.14A.49.49,0,0,1,21.75,18.58Z"/></g></g></svg>