<svg xmlns="http://www.w3.org/2000/svg" viewBox="0 0 12 12"><defs><style>.cls-1{fill:#f15a29;}</style></defs><title>star</title><g id="Слой_2" data-name="Слой 2"><g id="Layer_3" data-name="Layer 3"><path class="cls-1" d="M12,4.54a.61.61,0,0,0-.48-.43L8.07,3.59,6.54.35a.59.59,0,0,0-1.08,0L3.93,3.59.51,4.11A.61.61,0,0,0,0,4.54a.65.65,0,0,0,.15.64L2.66,7.7l-.58,3.56a.64.64,0,0,0,.24.61.58.58,0,0,0,.35.12.58.58,0,0,0,.28-.07L6,10.25l3.06,1.68a.58.58,0,0,0,.28.07.58.58,0,0,0,.35-.12.64.64,0,0,0,.24-.61L9.34,7.7l2.47-2.52A.65.65,0,0,0,12,4.54Z"/></g></g></svg>