<svg xmlns="http://www.w3.org/2000/svg" viewBox="0 0 32.39 20.38"><defs><style>.cls-1{fill:#f15a29;}</style></defs><title>truck</title><g id="Слой_2" data-name="Слой 2"><g id="Layer_1" data-name="Layer 1"><path class="cls-1" d="M0,0V17.73H2.89s0,0,0-.07A3.46,3.46,0,0,1,4,15.11a4,4,0,0,1,5.37,0,3.5,3.5,0,0,1,1.12,2.55s0,0,0,.07H19V0Z"/><path class="cls-1" d="M27.58,3.38H20.2V17.73H21v-.07a3.48,3.48,0,0,1,1.13-2.55,4,4,0,0,1,5.37,0,3.48,3.48,0,0,1,1.13,2.55v.07h3.79v-7Zm-5.9,1.46h4.71l2.93,4.75H21.68Zm7.83,7.85H22v-1h7.5Z"/><path class="cls-1" d="M8.79,15.75a3.07,3.07,0,0,0-2.09-.8,3,3,0,0,0-2.09.8,2.58,2.58,0,0,0-.86,1.91.59.59,0,0,0,0,.07,2.59,2.59,0,0,0,.85,1.84,3,3,0,0,0,2.09.81,3.07,3.07,0,0,0,2.09-.81,2.62,2.62,0,0,0,.84-1.84v-.07A2.62,2.62,0,0,0,8.79,15.75Z"/><path class="cls-1" d="M26.87,15.75a3.12,3.12,0,0,0-4.18,0,2.61,2.61,0,0,0-.85,1.91.21.21,0,0,0,0,.07,2.58,2.58,0,0,0,.84,1.84,3.09,3.09,0,0,0,4.18,0,2.58,2.58,0,0,0,.85-1.84v-.07A2.6,2.6,0,0,0,26.87,15.75Z"/></g></g></svg>