<svg xmlns="http://www.w3.org/2000/svg" viewBox="0 0 28.02 28.04"><defs><style>.cls-1{fill:#f15a29;}</style></defs><title>umbrella</title><g id="Слой_2" data-name="Слой 2"><g id="Layer_1" data-name="Layer 1"><path class="cls-1" d="M21,17.39h0v0Z"/><path class="cls-1" d="M7.06,17.39h0v0Z"/><path class="cls-1" d="M15,2.37V.94a.94.94,0,1,0-1.88,0V2.37A13.86,13.86,0,0,0,0,15.76c0,.4.37.31.5,0h0A3.46,3.46,0,0,1,3.58,14a3.47,3.47,0,0,1,3,1.69h0a.46.46,0,0,0,.88,0l0,0a3.47,3.47,0,0,1,3-1.67,3.53,3.53,0,0,1,2.53,1v9.84A3.15,3.15,0,0,0,16.21,28,3,3,0,0,0,19.15,25s0,0,0,0h0a.94.94,0,0,0-1.88,0h0c0,.68-.37,1.24-1.06,1.24A1.26,1.26,0,0,1,15,24.89V15.06a3.52,3.52,0,0,1,2.53-1,3.46,3.46,0,0,1,3.06,1.74.45.45,0,0,0,.85,0,.16.16,0,0,1,0-.06,3.56,3.56,0,0,1,6.08.15h0c.13.27.47.36.5,0A13.86,13.86,0,0,0,15,2.37Z"/></g></g></svg>