<svg xmlns="http://www.w3.org/2000/svg" viewBox="0 0 8.45 10.08"><defs><style>.cls-1{opacity:0.66;}.cls-2{fill:#939598;}</style></defs><title>vk</title><g id="Слой_2" data-name="Слой 2"><g id="Layer_1" data-name="Layer 1"><g class="cls-1"><path class="cls-2" d="M0,0H4A11.67,11.67,0,0,1,5.82.1,2.62,2.62,0,0,1,6.87.52a2.59,2.59,0,0,1,.77.84A2.29,2.29,0,0,1,8,2.54,2.39,2.39,0,0,1,6.53,4.73,2.66,2.66,0,0,1,8,5.64a2.43,2.43,0,0,1,.5,1.52A3,3,0,0,1,8.13,8.5a2.7,2.7,0,0,1-.87,1A2.89,2.89,0,0,1,5.89,10q-.51.06-2.46.07H0ZM2,1.68V4H3.37Q4.56,4,4.85,4a1.35,1.35,0,0,0,.82-.36A1.06,1.06,0,0,0,6,2.83a1.11,1.11,0,0,0-.26-.76,1.17,1.17,0,0,0-.77-.35q-.3,0-1.74,0Zm0,4v2.7H3.92a9.2,9.2,0,0,0,1.4-.06,1.26,1.26,0,0,0,.74-.4,1.24,1.24,0,0,0,.29-.86,1.32,1.32,0,0,0-.22-.77,1.24,1.24,0,0,0-.64-.46,6.91,6.91,0,0,0-1.81-.14Z"/></g></g></g></svg>